<svg width="200" height="200" viewBox="0 0 200 200" fill="none" xmlns="http://www.w3.org/2000/svg">
<path d="M99.93 200C112.102 200 121.97 155.228 121.97 100C121.97 44.7715 112.102 0 99.93 0C87.7577 0 77.89 44.7715 77.89 100C77.89 155.228 87.7577 200 99.93 200Z" fill="#242424"/>
<path d="M135.04 194C143.214 194 149.84 151.915 149.84 100C149.84 48.0852 143.214 6 135.04 6C126.866 6 120.24 48.0852 120.24 100C120.24 151.915 126.866 194 135.04 194Z" fill="#242424"/>
<path d="M167.07 173C172.792 173 177.43 140.317 177.43 100C177.43 59.6832 172.792 27 167.07 27C161.348 27 156.71 59.6832 156.71 100C156.71 140.317 161.348 173 167.07 173Z" fill="#242424"/>
<path d="M193.79 134C197.22 134 200 118.778 200 100C200 81.2223 197.22 66 193.79 66C190.36 66 187.58 81.2223 187.58 100C187.58 118.778 190.36 134 193.79 134Z" fill="#242424"/>
<path d="M6.21 134C9.63969 134 12.42 118.778 12.42 100C12.42 81.2223 9.63969 66 6.21 66C2.78031 66 0 81.2223 0 100C0 118.778 2.78031 134 6.21 134Z" fill="#242424"/>
<path d="M64.96 194C73.1338 194 79.76 151.915 79.76 100C79.76 48.0852 73.1338 6 64.96 6C56.7862 6 50.16 48.0852 50.16 100C50.16 151.915 56.7862 194 64.96 194Z" fill="#242424"/>
<path d="M32.9299 173C38.6516 173 43.2899 140.317 43.2899 100C43.2899 59.6832 38.6516 27 32.9299 27C27.2083 27 22.5699 59.6832 22.5699 100C22.5699 140.317 27.2083 173 32.9299 173Z" fill="#242424"/>
</svg>
